<svg version="1.1" id="Layer_1" xmlns="http://www.w3.org/2000/svg" xmlns:xlink="http://www.w3.org/1999/xlink" x="0px" y="0px"
	 width="100%" viewBox="0 0 1114 787" enable-background="new 0 0 1114 787" xml:space="preserve">
<path fill="#000000" opacity="1.000000" stroke="none" 
	d="
M818.000000,788.000000 
	C545.369080,788.000000 273.238220,788.000000 1.053656,788.000000 
	C1.053656,525.736938 1.053656,263.473846 1.053656,1.105373 
	C372.214233,1.105373 743.428528,1.105373 1114.821411,1.105373 
	C1114.821411,263.333221 1114.821411,525.666626 1114.821411,788.000000 
	C1016.140442,788.000000 917.320251,788.000000 818.000000,788.000000 
M954.017090,322.857880 
	C953.375854,307.058502 947.889404,293.118164 937.968689,280.082306 
	C938.646667,277.211090 939.274902,274.327026 940.011047,271.470795 
	C943.602539,257.535187 941.404358,243.331955 941.991455,229.258423 
	C942.346863,220.738571 940.695435,212.606903 938.437927,204.353058 
	C933.977234,188.044556 926.540344,173.741547 914.992004,161.274399 
	C902.034058,147.285522 886.113892,139.081757 867.827637,135.060806 
	C847.413025,130.571838 826.671875,130.525787 805.010864,131.069092 
	C800.325439,131.418533 795.640015,131.767990 790.133362,132.029037 
	C788.547180,132.345825 786.965515,132.688080 785.374023,132.975418 
	C772.182922,135.356934 758.697021,136.712051 745.884705,140.405167 
	C734.403992,143.714478 723.439880,149.140808 712.662109,154.470825 
	C702.366089,159.562576 694.463745,167.910828 687.189819,176.653900 
	C681.142822,183.922226 677.953613,192.609970 676.003723,202.571045 
	C674.963196,204.603668 674.050049,206.714218 672.861755,208.656387 
	C664.208984,222.798172 658.412903,237.863480 658.018005,254.647064 
	C657.742310,266.365326 661.057495,277.126129 666.993103,287.802124 
	C658.385254,298.898193 654.495361,311.579285 654.007629,325.510071 
	C653.590515,337.425079 656.254272,348.614166 662.440552,358.665039 
	C668.473511,368.466644 676.339539,376.540527 688.049500,380.574951 
	C691.705750,383.719147 695.362000,386.863312 698.968323,390.891449 
	C698.449158,394.952423 697.786316,399.001160 697.439575,403.076843 
	C696.615356,412.766968 696.273621,422.415619 702.003967,431.784821 
	C703.797913,433.810669 705.591858,435.836517 708.151794,437.833405 
	C713.626648,438.840393 719.101562,439.847351 725.497803,440.929535 
	C726.321899,440.951691 727.279358,441.257843 727.945862,440.944611 
	C730.265747,439.854340 732.484802,438.549438 734.742188,437.326172 
	C733.123535,435.534668 731.835815,433.049011 729.821045,432.088348 
	C724.797302,429.693024 719.442810,427.991211 713.831604,425.358307 
	C708.973389,415.819885 709.550110,405.968781 712.754456,396.291473 
	C713.497742,397.155792 714.349915,397.949066 714.967346,398.895508 
	C720.809204,407.849762 727.553894,415.916626 736.002930,422.639404 
	C744.528381,429.423065 754.247253,431.483917 764.459961,429.798462 
	C772.435364,428.482208 780.112488,425.359314 788.006897,423.819794 
	C788.394470,425.313507 788.782104,426.807190 788.777039,428.837097 
	C782.835754,435.279358 776.894470,441.721588 770.229065,448.026184 
	C765.244019,451.003448 760.230408,453.934021 755.279846,456.967621 
	C744.768860,463.408630 734.427551,470.511932 728.213074,481.237915 
	C721.897949,492.137726 717.180237,504.002228 712.226257,515.641479 
	C706.167175,529.877075 700.758606,544.388672 694.758057,558.650146 
	C688.502380,573.518250 681.718201,588.164978 675.546448,603.066528 
	C674.306763,606.059753 672.713379,607.192627 669.881958,608.158630 
	C658.817871,611.933655 647.855835,616.009460 636.876587,620.030151 
	C627.973633,623.290527 619.100159,626.631165 610.214355,629.938049 
	C608.276184,630.659424 606.340881,631.388550 604.025330,631.408081 
	C596.548096,626.486755 588.471191,623.256775 579.569824,621.789612 
	C569.411560,620.115356 559.741760,619.645447 551.313538,628.014954 
	C544.250061,630.703308 539.505371,635.473572 536.928406,643.012878 
	C531.787720,643.008545 526.646667,643.043152 521.506409,642.992126 
	C509.595154,642.873901 497.684235,642.714233 486.316315,642.161987 
	C487.562897,640.075867 489.005920,638.080933 490.023499,635.888489 
	C495.769348,623.508606 497.188843,610.140320 497.855591,596.814697 
	C498.550934,582.917542 498.073303,568.961792 499.030457,554.969971 
	C537.305725,554.923645 575.581055,554.877380 614.792664,555.003784 
	C619.717834,554.719238 625.046448,555.532715 629.478027,553.904602 
	C636.976074,551.149963 639.953613,544.356628 639.962463,536.613831 
	C640.031860,476.159027 640.042603,415.704041 639.948059,355.249298 
	C639.936401,347.797760 636.862732,341.448242 629.373413,339.167053 
	C624.214417,337.595642 618.540222,337.715240 612.554749,337.023956 
	C612.378235,337.065796 612.201660,337.107666 611.096985,336.987305 
	C511.552551,336.982971 412.008148,336.978027 312.463715,336.981628 
	C311.303192,336.981659 310.142670,337.091125 308.507751,337.023895 
	C308.507751,337.023895 308.044037,337.184540 307.298737,337.034271 
	C305.879303,337.696106 304.490448,338.436188 303.035034,339.006073 
	C297.153687,341.309052 293.001434,347.315979 293.001587,353.661774 
	C293.003113,415.594452 293.143005,477.527802 292.849030,539.459045 
	C292.811035,547.460938 301.605164,555.164551 308.624817,555.117615 
	C346.081970,554.867249 383.541687,554.998352 420.999451,555.935181 
	C420.667389,569.333557 420.912018,582.777405 419.859375,596.118958 
	C418.500366,613.343811 415.864655,630.393982 401.637634,643.083313 
	C401.637634,643.083313 401.541046,643.365967 400.580963,643.046997 
	C369.258545,643.031372 337.935547,642.931641 306.614868,643.160583 
	C304.125183,643.178772 299.670410,645.275146 299.523071,646.745850 
	C298.961456,652.352112 299.791351,658.097656 299.162628,663.944519 
	C281.680664,663.963013 264.198669,663.993958 246.716690,663.997437 
	C206.424118,664.005371 166.131332,664.060425 125.839279,663.915100 
	C121.360306,663.898926 119.634529,664.963501 119.892761,669.765808 
	C120.312347,677.568604 119.992149,685.410583 120.010292,693.235901 
	C120.024628,699.422974 120.608238,699.970093 126.993004,699.992310 
	C134.984039,700.020020 142.975067,700.048462 150.990494,701.004028 
	C150.994095,702.670532 151.000732,704.336975 151.000824,706.003479 
	C151.001984,727.334351 151.125137,748.666443 150.906998,769.995056 
	C150.858841,774.703308 152.646408,776.343567 157.004807,776.008545 
	C157.833130,775.944885 158.670578,776.000000 159.503815,776.000000 
	C318.318695,776.000061 477.133606,776.000671 635.948486,775.993713 
	C638.279480,775.993591 640.610474,775.898560 643.883240,775.955750 
	C749.812012,775.969421 855.740784,775.964661 961.669495,776.056335 
	C966.478638,776.060486 968.078491,774.170166 968.056824,769.507812 
	C967.949158,746.358032 968.052917,723.207214 969.004028,700.008789 
	C975.653809,700.004395 982.307861,699.854675 988.951965,700.045898 
	C993.516663,700.177185 995.158691,698.203918 995.051025,693.768799 
	C994.857544,685.793701 994.748169,677.800171 995.084229,669.834595 
	C995.281555,665.156921 993.643372,663.872620 989.081909,663.908569 
	C964.479004,664.102417 939.873779,664.025024 915.269531,663.956360 
	C913.178467,663.950562 911.089172,663.322266 909.000000,662.056946 
	C909.343628,654.473938 909.677246,646.890503 910.033936,639.308105 
	C910.375122,632.057190 910.603027,624.797363 911.126221,617.559265 
	C911.980591,605.739685 913.034424,593.934570 914.821838,582.014954 
	C919.237366,582.257446 921.826965,579.405762 924.919678,576.776794 
	C936.019653,567.341003 943.547668,555.569336 947.925476,541.916748 
	C951.186462,531.746826 951.240723,521.257080 950.256836,510.468170 
	C948.907654,495.673737 949.361450,480.716614 948.993225,465.830414 
	C948.641479,451.611023 948.226562,437.393127 947.967712,422.310974 
	C949.753967,410.018585 955.563965,399.310516 960.937561,388.357849 
	C964.941040,380.197693 970.585144,372.062866 966.777161,361.686249 
	C968.081360,347.161835 965.649719,333.893372 954.017090,322.857880 
z"/>
<path fill="#F2F2F2" opacity="1.000000" stroke="none" 
	d="
M613.856323,554.831055 
	C575.581055,554.877380 537.305725,554.923645 498.211121,554.811401 
	C496.956665,552.793823 496.148895,550.936096 496.142700,549.075745 
	C496.058838,523.936523 496.140320,498.796753 496.061310,473.657532 
	C496.027283,462.826294 489.421783,456.598358 478.379333,457.030579 
	C464.602905,456.951050 451.282471,456.849396 437.962738,456.909271 
	C428.215973,456.953064 422.015228,463.421875 422.011505,473.332336 
	C422.002075,498.641571 422.031525,523.950867 421.966949,549.259949 
	C421.962067,551.173279 421.337189,553.085022 421.000519,554.997498 
	C383.541687,554.998352 346.081970,554.867249 308.624817,555.117615 
	C301.605164,555.164551 292.811035,547.460938 292.849030,539.459045 
	C293.143005,477.527802 293.003113,415.594452 293.001587,353.661774 
	C293.001434,347.315979 297.153687,341.309052 303.035034,339.006073 
	C304.490448,338.436188 305.879303,337.696106 307.765564,337.242188 
	C308.232391,337.450073 308.667480,337.504333 308.667480,337.504333 
	C308.667480,337.504333 308.982147,337.149506 308.982147,337.149536 
	C310.142670,337.091125 311.303192,336.981659 312.463715,336.981628 
	C412.008148,336.978027 511.552551,336.982971 611.684265,337.263763 
	C612.491882,337.764465 612.750549,337.928131 613.271362,338.285583 
	C620.387085,341.542480 625.067810,346.179016 625.068298,354.251953 
	C625.071899,415.348938 625.071167,476.445923 625.076050,537.542908 
	C625.076538,543.512939 622.482849,547.977539 617.502014,551.238586 
	C616.102539,552.154724 615.061646,553.618469 613.856323,554.831055 
M600.306274,531.089905 
	C599.374146,529.669861 598.442017,528.249756 597.509949,526.829712 
	C596.545532,528.224365 594.903137,529.548523 594.749573,531.027344 
	C594.358337,534.793152 594.438721,538.644470 594.759277,542.425232 
	C594.854431,543.547180 596.373779,544.548523 597.240540,545.605042 
	C598.257996,544.537292 600.017212,543.555725 600.153137,542.385559 
	C600.551575,538.955017 600.304077,535.449463 600.306274,531.089905 
M586.208496,544.801331 
	C589.277405,546.549561 590.650513,544.963989 590.797607,542.123047 
	C591.011780,537.985657 591.024902,533.816711 590.730896,529.689209 
	C590.658325,528.670288 589.069946,527.759338 588.178406,526.798767 
	C587.162964,527.825256 585.308167,528.826538 585.276489,529.882629 
	C585.133606,534.641663 585.507507,539.416321 586.208496,544.801331 
M606.524536,526.822754 
	C605.842896,527.227173 604.588501,527.603577 604.567139,528.040222 
	C604.317139,533.164246 604.126160,538.301025 604.275757,543.424011 
	C604.297913,544.182312 606.441223,545.677307 607.108276,545.440063 
	C608.248474,545.034485 609.707703,543.577393 609.784424,542.474976 
	C610.084473,538.166077 610.038086,533.814575 609.775574,529.499817 
	C609.718567,528.563477 608.233887,527.713989 606.524536,526.822754 
z"/>
<path fill="#8E1A29" opacity="1.000000" stroke="none" 
	d="
M642.941467,775.847839 
	C640.610474,775.898560 638.279480,775.993591 635.948486,775.993713 
	C477.133606,776.000671 318.318695,776.000061 159.503815,776.000000 
	C158.670578,776.000000 157.833130,775.944885 157.004807,776.008545 
	C152.646408,776.343567 150.858841,774.703308 150.906998,769.995056 
	C151.125137,748.666443 151.001984,727.334351 151.000824,706.003479 
	C151.000732,704.336975 150.994095,702.670532 151.176880,700.189697 
	C153.714478,698.916931 156.065552,698.057983 158.416931,698.057068 
	C319.941467,697.992493 481.466034,697.996765 642.988525,698.464111 
	C642.971375,724.571289 642.956421,750.209595 642.941467,775.847839 
z"/>
<path fill="#661221" opacity="1.000000" stroke="none" 
	d="
M643.412354,775.901794 
	C642.956421,750.209595 642.971375,724.571289 643.458130,698.458435 
	C664.595337,697.971191 685.260864,697.958496 706.402161,697.964355 
	C791.301208,697.988586 875.724487,697.975647 960.147583,698.086487 
	C962.793274,698.089905 965.437317,699.371216 968.082153,700.056763 
	C968.052917,723.207214 967.949158,746.358032 968.056824,769.507812 
	C968.078491,774.170166 966.478638,776.060486 961.669495,776.056335 
	C855.740784,775.964661 749.812012,775.969421 643.412354,775.901794 
z"/>
<path fill="#452016" opacity="1.000000" stroke="none" 
	d="
M667.091919,287.103729 
	C661.057495,277.126129 657.742310,266.365326 658.018005,254.647064 
	C658.412903,237.863480 664.208984,222.798172 672.861755,208.656387 
	C674.050049,206.714218 674.963196,204.603668 676.406982,202.181595 
	C681.366272,196.858170 685.922302,191.924194 690.805664,186.859589 
	C691.412720,186.125443 691.692383,185.521927 691.973450,184.954315 
	C691.974854,184.990234 691.907043,184.966293 692.261108,184.955276 
	C693.071167,184.753265 693.636353,184.675156 693.967285,184.354965 
	C705.976990,172.734497 721.022278,167.082962 736.722534,162.927170 
	C756.431580,157.710312 776.458557,155.363937 796.818604,157.977417 
	C811.249512,159.829819 825.809753,161.199844 840.001282,164.237732 
	C853.156982,167.053879 865.856140,171.875046 876.028076,181.459473 
	C893.023499,197.473175 899.735291,217.905792 900.898499,240.493774 
	C901.454529,251.291626 901.006714,262.141174 900.585449,272.934540 
	C889.740784,273.147827 881.828857,278.795502 874.033569,284.625427 
	C870.189148,277.720856 866.466736,271.148895 862.163086,263.550629 
	C862.163086,274.138794 862.163086,283.414734 862.163086,293.206665 
	C841.577271,280.516907 824.626221,251.731964 821.401672,224.162537 
	C813.841858,239.659332 803.576477,252.091324 790.925903,262.562592 
	C778.323242,272.994263 764.665710,281.676575 748.106506,288.808319 
	C751.308350,275.182068 754.148682,263.094269 757.046204,250.762894 
	C733.458435,262.039581 712.669495,276.832703 695.269653,296.582581 
	C692.700562,293.478668 690.523254,290.848083 688.089539,288.273865 
	C686.801880,291.328644 685.986023,294.427826 684.650513,297.284027 
	C683.957764,298.765594 682.345642,299.817322 681.064087,300.728394 
	C677.942505,297.218048 674.966187,293.981232 671.841553,290.894562 
	C670.408508,289.478912 668.684143,288.358215 667.091919,287.103729 
z"/>
<path fill="#FFBB00" opacity="1.000000" stroke="none" 
	d="
M947.839417,423.174561 
	C948.226562,437.393127 948.641479,451.611023 948.993225,465.830414 
	C949.361450,480.716614 948.907654,495.673737 950.256836,510.468170 
	C951.240723,521.257080 951.186462,531.746826 947.925476,541.916748 
	C943.547668,555.569336 936.019653,567.341003 924.919678,576.776794 
	C921.826965,579.405762 919.237366,582.257446 914.120117,581.874146 
	C910.609802,580.117371 907.801270,578.501465 904.778076,576.640991 
	C893.674622,568.025574 889.397400,556.226746 889.188721,543.249634 
	C888.951965,528.532471 890.161438,513.791992 890.729553,499.382355 
	C888.595032,508.415497 886.226746,517.846069 884.155273,527.341309 
	C880.944702,542.057434 880.997864,556.344482 890.420898,569.225098 
	C890.943848,569.939941 890.830017,571.120483 890.789368,572.060547 
	C890.566162,572.036804 890.118713,572.073608 889.831909,571.872681 
	C885.360046,569.075989 881.174988,566.480286 876.848694,563.589600 
	C873.873535,560.770508 871.128113,558.137573 868.186035,555.746582 
	C863.226196,551.715820 858.141541,547.838562 853.070190,543.606934 
	C852.566467,542.752014 852.101929,542.186951 851.637390,541.621887 
	C851.207703,542.046326 850.778015,542.470703 850.348328,542.895142 
	C851.205383,543.285034 852.062378,543.674866 852.972046,544.409851 
	C854.551453,546.883423 855.891541,549.180908 857.638611,551.109802 
	C863.719604,557.823669 869.941650,564.409912 876.080322,571.484619 
	C875.609375,577.049194 875.245422,582.181763 874.712280,587.296692 
	C873.164307,602.148315 871.619263,617.000916 869.935608,631.837524 
	C868.720520,642.544739 867.285706,653.227051 865.486267,663.975586 
	C847.345764,664.009094 829.667847,663.987549 812.148865,663.575806 
	C812.566956,661.444397 813.057617,659.701782 813.046875,657.962158 
	C812.988159,648.463562 814.836243,648.438965 803.843567,648.441833 
	C800.885254,648.442627 797.926880,648.161072 794.996704,647.540771 
	C795.947815,612.998169 796.906128,578.924805 797.781067,544.849365 
	C798.369995,521.911255 798.841064,498.970123 799.681580,476.145874 
	C803.196899,484.451965 806.395508,492.642487 809.757080,501.250275 
	C811.281128,499.928833 812.305908,499.119202 813.241394,498.217010 
	C822.800110,488.998840 832.412292,479.834351 841.848633,470.492340 
	C844.476196,467.891083 846.571472,464.752289 848.936462,461.888977 
	C848.962036,461.917877 848.895752,461.957428 849.151611,461.880005 
	C849.606262,461.517395 849.805054,461.232208 850.004089,460.977356 
	C850.004333,461.007721 849.944275,460.999054 850.191528,460.922272 
	C850.639221,460.574097 850.839539,460.302704 851.023071,460.018921 
	C851.006226,460.006561 851.021606,460.045197 851.357666,460.004456 
	C852.121948,459.484833 852.550110,459.006012 853.164307,458.273743 
	C855.348999,456.336761 857.347656,454.653198 859.627075,453.123169 
	C871.147461,463.494812 882.387085,473.712982 893.657593,483.959198 
	C894.284668,472.543274 897.695801,460.466858 894.951843,447.626099 
	C894.710205,443.471832 894.449341,439.742462 894.572144,435.994904 
	C898.648254,436.605652 902.340637,437.234619 906.424561,437.893585 
	C918.448181,433.521027 930.068420,429.087036 941.723511,424.746368 
	C943.685181,424.015778 945.796997,423.688324 947.839417,423.174561 
z"/>
<path fill="#9E1C26" opacity="1.000000" stroke="none" 
	d="
M705.926331,697.945801 
	C685.260864,697.958496 664.595337,697.971191 643.460205,697.989502 
	C481.466034,697.996765 319.941467,697.992493 158.416931,698.057068 
	C156.065552,698.057983 153.714478,698.916931 151.164688,699.726013 
	C142.975067,700.048462 134.984039,700.020020 126.993004,699.992310 
	C120.608238,699.970093 120.024628,699.422974 120.010292,693.235901 
	C119.992149,685.410583 120.312347,677.568604 119.892761,669.765808 
	C119.634529,664.963501 121.360306,663.898926 125.839279,663.915100 
	C166.131332,664.060425 206.424118,664.005371 246.716690,663.997437 
	C264.198669,663.993958 281.680664,663.963013 300.096252,663.899414 
	C301.859894,663.920776 302.689880,664.045410 303.519867,664.045349 
	C388.019440,664.034912 472.519043,664.015137 557.434082,664.012939 
	C559.237854,664.016785 560.626221,664.003418 562.480103,664.003784 
	C567.916138,663.984558 572.886658,663.951538 578.332153,663.973022 
	C594.766785,664.038757 610.726501,664.035706 626.686218,664.064636 
	C653.115051,664.112549 679.543884,664.181030 705.977539,664.694397 
	C705.963684,676.080566 705.945007,687.013184 705.926331,697.945801 
z"/>
<path fill="#F8C58E" opacity="1.000000" stroke="none" 
	d="
M688.345947,288.217529 
	C690.523254,290.848083 692.700562,293.478668 695.269653,296.582581 
	C712.669495,276.832703 733.458435,262.039581 757.046204,250.762894 
	C754.148682,263.094269 751.308350,275.182068 748.106506,288.808319 
	C764.665710,281.676575 778.323242,272.994263 790.925903,262.562592 
	C803.576477,252.091324 813.841858,239.659332 821.401672,224.162537 
	C824.626221,251.731964 841.577271,280.516907 862.163086,293.206665 
	C862.163086,283.414734 862.163086,274.138794 862.163086,263.550629 
	C866.466736,271.148895 870.189148,277.720856 873.906616,284.947021 
	C857.807007,304.812012 853.670898,326.499878 862.057678,349.937988 
	C864.954895,358.034729 870.579712,365.155426 874.583740,372.777222 
	C871.151550,375.138763 868.114746,377.473083 865.032410,379.745544 
	C858.060242,384.885681 851.065552,389.995270 843.674500,395.072876 
	C841.556641,395.442474 839.703125,395.565063 838.153931,396.315704 
	C822.975769,403.670441 807.818542,411.070404 792.744385,418.634949 
	C790.871826,419.574646 789.516907,421.545929 787.922180,423.039185 
	C780.112488,425.359314 772.435364,428.482208 764.459961,429.798462 
	C754.247253,431.483917 744.528381,429.423065 736.002930,422.639404 
	C727.553894,415.916626 720.809204,407.849762 714.967346,398.895508 
	C714.349915,397.949066 713.497742,397.155792 712.394958,395.766327 
	C711.318604,393.126190 710.601746,391.011230 709.967590,388.524109 
	C709.924561,387.514252 709.928833,386.813538 709.654419,386.247955 
	C699.204895,364.707764 694.964355,341.837006 694.961426,318.047241 
	C694.961243,316.730896 694.961060,315.372162 694.659119,314.105072 
	C692.599976,305.465118 690.459900,296.844421 688.345947,288.217529 
M740.734863,358.287750 
	C748.142944,363.569824 759.335999,360.092834 763.045044,351.381256 
	C768.735535,338.016083 764.571594,325.089966 762.144165,312.802368 
	C757.158569,322.396484 752.068176,332.192169 746.435303,341.476990 
	C745.943054,339.236511 745.912170,336.744385 744.857300,334.810822 
	C742.972778,331.356323 740.470581,328.238800 738.191772,324.150848 
	C739.716675,316.206818 739.924683,308.324829 737.271912,300.531891 
	C735.787170,296.170197 734.030457,291.425171 728.837402,291.307068 
	C723.466919,291.184998 721.765442,296.195679 720.268311,300.423676 
	C717.667969,307.767120 717.594910,315.348724 718.133850,323.000702 
	C716.473694,324.235260 714.406128,325.167664 713.226257,326.758484 
	C708.905945,332.583893 707.599060,339.039154 708.896118,346.355225 
	C710.430847,355.012177 717.844421,362.403748 726.631531,361.813507 
	C731.203979,361.506378 735.646179,359.260010 740.734863,358.287750 
M795.497742,326.258728 
	C787.791138,332.336395 783.802368,339.858398 786.833740,349.806793 
	C790.393372,361.488861 802.345886,367.801880 814.139282,364.428314 
	C825.680359,361.126862 832.291748,349.602753 828.643372,337.867798 
	C826.616821,331.349274 822.473206,326.108612 814.909973,324.140533 
	C815.115540,322.996185 815.374573,321.858490 815.518127,320.706451 
	C816.606445,311.970978 816.225769,303.388916 811.686157,295.579926 
	C808.239990,289.651825 802.788696,289.646637 799.195312,295.480316 
	C797.826599,297.702393 796.373413,300.295959 796.251343,302.783722 
	C795.872681,310.496796 796.114746,318.240356 795.497742,326.258728 
M772.402039,399.052155 
	C785.364807,391.242523 792.757751,379.865143 794.954163,363.832275 
	C779.690674,375.998260 762.595276,378.563599 744.043884,378.022491 
	C747.961609,383.924835 751.335999,389.023804 754.725769,394.112518 
	C761.088379,403.664093 761.092102,403.661621 772.402039,399.052155 
M800.458801,269.927765 
	C796.415649,270.193970 792.344910,270.282867 788.356506,270.901642 
	C787.694946,271.004272 786.590210,274.135132 787.052002,274.653503 
	C790.486389,278.508392 802.359741,277.359894 806.387451,272.466827 
	C804.581421,271.583252 802.926453,270.773560 800.458801,269.927765 
M739.969238,276.768066 
	C742.406555,275.853302 744.843933,274.938568 747.705383,273.864685 
	C742.976135,268.935059 732.258484,267.954895 728.210571,271.263489 
	C725.947327,273.113403 726.996582,274.736023 728.975830,275.261993 
	C732.268494,276.136902 735.732910,276.365601 739.969238,276.768066 
z"/>
<path fill="#0A0917" opacity="1.000000" stroke="none" 
	d="
M421.000000,555.466309 
	C421.337189,553.085022 421.962067,551.173279 421.966949,549.259949 
	C422.031525,523.950867 422.002075,498.641571 422.011505,473.332336 
	C422.015228,463.421875 428.215973,456.953064 437.962738,456.909271 
	C451.282471,456.849396 464.602905,456.951050 478.628784,457.269897 
	C486.960571,460.912262 490.023773,466.962402 490.010468,475.063080 
	C489.954590,509.047455 490.358826,543.038086 489.802185,577.013428 
	C489.580017,590.574524 487.947357,604.206421 485.758636,617.610535 
	C484.109283,627.711426 481.174805,637.826599 471.538086,644.489441 
	C448.190002,644.588806 425.294891,644.566406 402.544983,644.343628 
	C402.418823,643.731079 402.147430,643.318970 401.876068,642.906799 
	C415.864655,630.393982 418.500366,613.343811 419.859375,596.118958 
	C420.912018,582.777405 420.667389,569.333557 421.000000,555.466309 
z"/>
<path fill="#FEBB00" opacity="1.000000" stroke="none" 
	d="
M604.404297,632.114136 
	C606.340881,631.388550 608.276184,630.659424 610.214355,629.938049 
	C619.100159,626.631165 627.973633,623.290527 636.876587,620.030151 
	C647.855835,616.009460 658.817871,611.933655 669.881958,608.158630 
	C672.713379,607.192627 674.306763,606.059753 675.546448,603.066528 
	C681.718201,588.164978 688.502380,573.518250 694.758057,558.650146 
	C700.758606,544.388672 706.167175,529.877075 712.226257,515.641479 
	C717.180237,504.002228 721.897949,492.137726 728.213074,481.237915 
	C734.427551,470.511932 744.768860,463.408630 755.279846,456.967621 
	C760.230408,453.934021 765.244019,451.003448 770.659302,448.478149 
	C773.852295,461.704376 776.615112,474.478668 779.565063,488.118256 
	C780.437988,486.577881 780.884827,485.789337 781.536499,485.240906 
	C782.940552,487.076782 784.139893,488.672607 785.234924,490.129639 
	C786.529114,488.114166 787.556702,486.513977 788.550781,485.362091 
	C785.621582,506.494415 782.759338,527.183167 779.820862,547.861084 
	C776.975952,567.880432 773.992676,587.880249 771.184875,607.904724 
	C769.320618,621.199829 767.658142,634.523315 765.522949,648.002686 
	C756.326294,648.399109 747.512024,648.626892 738.332336,648.767700 
	C735.307739,648.509277 732.648560,648.337830 729.993591,647.714294 
	C730.324646,643.969727 730.755249,640.683655 730.959595,637.383606 
	C731.707458,625.309143 732.301270,613.224792 733.098999,601.153809 
	C734.343933,582.316406 735.697693,563.486206 737.025940,544.654419 
	C737.631775,536.065796 738.209106,527.474060 738.942322,518.895935 
	C739.626953,510.886139 738.044067,503.508698 733.217346,496.150482 
	C728.826233,506.442505 724.693420,516.203979 720.501282,525.939880 
	C709.730286,550.954163 698.962036,575.969788 688.114990,600.951172 
	C686.471436,604.736267 685.675842,608.114563 687.988831,612.120117 
	C689.224731,614.260376 688.834351,617.339722 689.177979,619.995239 
	C683.503967,614.221130 677.912415,612.399963 671.068604,616.787781 
	C669.832275,617.580505 668.312683,617.924133 666.940308,618.513062 
	C648.632019,626.369629 630.326721,634.232971 611.712036,641.949585 
	C609.070435,638.574402 606.737366,635.344299 604.404297,632.114136 
z"/>
<path fill="#761622" opacity="1.000000" stroke="none" 
	d="
M706.402161,697.964355 
	C705.945007,687.013184 705.963684,676.080566 706.444519,664.616821 
	C717.501892,664.023926 728.097168,663.962158 739.178589,663.944702 
	C763.773193,663.981384 787.881592,663.973694 811.989990,663.966003 
	C829.667847,663.987549 847.345764,664.009094 865.956177,664.008057 
	C872.878845,663.989929 878.868958,663.994385 885.336304,664.016113 
	C889.242065,664.032654 892.677063,664.164551 896.097473,663.997559 
	C900.404236,663.787231 904.699036,663.332458 908.999023,662.983154 
	C911.089172,663.322266 913.178467,663.950562 915.269531,663.956360 
	C939.873779,664.025024 964.479004,664.102417 989.081909,663.908569 
	C993.643372,663.872620 995.281555,665.156921 995.084229,669.834595 
	C994.748169,677.800171 994.857544,685.793701 995.051025,693.768799 
	C995.158691,698.203918 993.516663,700.177185 988.951965,700.045898 
	C982.307861,699.854675 975.653809,700.004395 968.543091,700.032837 
	C965.437317,699.371216 962.793274,698.089905 960.147583,698.086487 
	C875.724487,697.975647 791.301208,697.988586 706.402161,697.964355 
z"/>
<path fill="#C1362F" opacity="1.000000" stroke="none" 
	d="
M690.478271,186.990204 
	C685.922302,191.924194 681.366272,196.858170 676.486694,201.810455 
	C677.953613,192.609970 681.142822,183.922226 687.189819,176.653900 
	C694.463745,167.910828 702.366089,159.562576 712.662109,154.470825 
	C723.439880,149.140808 734.403992,143.714478 745.884705,140.405167 
	C758.697021,136.712051 772.182922,135.356934 785.374023,132.975418 
	C786.965515,132.688080 788.547180,132.345825 790.652527,132.430084 
	C792.719116,133.537201 794.234497,134.750320 795.820129,134.850250 
	C799.881714,135.106186 803.974426,134.867126 808.516907,134.858017 
	C822.424377,136.608429 836.027954,137.547043 849.276245,140.235870 
	C867.201538,143.873932 883.636597,151.765137 898.440674,162.435074 
	C919.963013,177.947174 927.538879,200.993805 929.805176,225.956406 
	C931.258484,241.963242 930.703491,258.151367 931.100830,274.256958 
	C931.136230,275.692474 931.557861,277.118469 931.585571,278.951752 
	C931.509521,288.273346 931.648010,297.192078 931.696655,306.463074 
	C930.540100,311.477295 929.473267,316.139221 928.405884,320.803253 
	C927.755554,319.040955 927.045288,317.116211 926.660767,314.981140 
	C928.962769,305.683655 928.413208,296.728088 925.219177,288.018616 
	C924.664612,286.506531 922.997803,285.402344 921.844727,284.109802 
	C920.565674,285.466064 918.496338,286.646576 918.148560,288.210022 
	C916.863647,293.986176 916.147827,299.888947 915.053955,306.080200 
	C913.565186,310.402679 911.228088,314.367279 911.141724,318.380341 
	C910.993896,325.241119 912.256287,332.132233 912.569824,338.952728 
	C908.121765,337.435059 907.711609,334.152740 907.722412,330.409576 
	C907.790894,306.592255 908.059998,282.769257 907.631470,258.959473 
	C907.422913,247.371231 906.646667,235.674728 904.743713,224.257858 
	C899.254944,191.326843 880.742126,169.469742 848.049011,160.559341 
	C817.307739,152.180908 786.088196,150.610062 754.657104,155.241455 
	C735.111023,158.121552 716.412781,163.929123 700.328796,176.021133 
	C697.103149,178.446243 694.693115,181.956421 691.907043,184.966293 
	C691.907043,184.966293 691.974854,184.990234 691.690918,185.120468 
	C691.097412,185.830536 690.787842,186.410370 690.478271,186.990204 
z"/>
<path fill="#F8C58F" opacity="1.000000" stroke="none" 
	d="
M926.335022,315.191467 
	C927.045288,317.116211 927.755554,319.040955 928.405884,320.803253 
	C929.473267,316.139221 930.540100,311.477295 931.856689,306.122345 
	C937.220825,300.056641 939.034485,300.219666 941.854004,306.983002 
	C945.386841,315.457336 948.531250,324.093536 951.892334,333.066650 
	C955.055542,341.822968 958.018799,350.234802 961.415771,358.467682 
	C962.067688,360.047699 964.424744,360.924164 965.995239,362.125183 
	C970.585144,372.062866 964.941040,380.197693 960.937561,388.357849 
	C955.563965,399.310516 949.753967,410.018585 947.903564,422.742767 
	C945.796997,423.688324 943.685181,424.015778 941.723511,424.746368 
	C930.068420,429.087036 918.448181,433.521027 906.370239,437.538574 
	C904.513123,432.875305 903.625305,428.194427 898.071167,426.619385 
	C897.663696,425.125122 897.142151,424.076141 897.029785,422.985046 
	C895.775146,410.803406 899.551453,399.840179 905.288696,389.365814 
	C906.092712,387.897919 906.888367,386.425385 907.721924,384.621704 
	C907.271057,382.926483 906.786072,381.564636 906.046021,379.895844 
	C905.543152,379.685669 905.295349,379.782471 905.087402,379.910004 
	C905.127258,379.940765 905.195984,379.867065 905.356812,379.521118 
	C899.932312,368.861664 894.171143,358.637512 888.860901,348.184296 
	C887.100403,344.718719 885.494690,340.103058 889.150208,337.114532 
	C893.022400,333.948822 896.862061,337.340088 899.854675,339.615051 
	C905.783813,344.122192 911.263123,349.221069 916.983826,354.362976 
	C917.279175,354.679138 917.519104,354.707703 917.758972,354.736267 
	C917.637573,354.354004 917.516174,353.971710 917.333008,353.213379 
	C915.823059,348.228394 914.374817,343.619507 912.926514,339.010620 
	C912.256287,332.132233 910.993896,325.241119 911.141724,318.380341 
	C911.228088,314.367279 913.565186,310.402679 915.351501,305.934692 
	C919.149597,302.868164 921.567993,303.728455 923.161011,307.457214 
	C924.255737,310.019623 925.279541,312.612305 926.335022,315.191467 
z"/>
<path fill="#F2F2F2" opacity="1.000000" stroke="none" 
	d="
M402.399780,644.543945 
	C425.294891,644.566406 448.190002,644.588806 471.965576,644.609619 
	C477.155060,643.929077 481.464142,643.250183 485.773193,642.571289 
	C497.684235,642.714233 509.595154,642.873901 521.506409,642.992126 
	C526.646667,643.043152 531.787720,643.008545 537.601440,643.324951 
	C540.763550,643.957642 543.252686,644.278198 546.230103,644.631165 
	C550.369934,644.770325 554.021362,644.877014 557.863403,645.335754 
	C560.957642,651.094971 560.458069,659.928467 557.018616,663.995850 
	C472.519043,664.015137 388.019440,664.034912 303.519867,664.045349 
	C302.689880,664.045410 301.859894,663.920776 300.565674,663.822754 
	C299.791351,658.097656 298.961456,652.352112 299.523071,646.745850 
	C299.670410,645.275146 304.125183,643.178772 306.614868,643.160583 
	C337.935547,642.931641 369.258545,643.031372 400.991089,643.400208 
	C401.734070,644.016907 402.066925,644.280457 402.399780,644.543945 
z"/>
<path fill="#F2F1F0" opacity="1.000000" stroke="none" 
	d="
M781.331726,485.000824 
	C780.884827,485.789337 780.437988,486.577881 779.565063,488.118256 
	C776.615112,474.478668 773.852295,461.704376 771.021362,448.546967 
	C776.894470,441.721588 782.835754,435.279358 789.298157,428.578339 
	C792.833496,431.775360 795.847778,435.231110 798.739319,438.546234 
	C811.572693,432.762817 823.271667,427.429657 835.031860,422.235107 
	C837.861755,420.985168 840.894653,420.194885 844.029358,419.496277 
	C848.184875,427.193634 852.145264,434.587952 855.873535,442.247009 
	C856.876465,445.997681 858.111389,449.483673 859.346313,452.969666 
	C857.347656,454.653198 855.348999,456.336761 852.868103,458.403625 
	C851.931152,459.206360 851.476379,459.625763 851.021606,460.045166 
	C851.021606,460.045197 851.006226,460.006561 850.764038,460.077393 
	C850.329285,460.431824 850.136780,460.715424 849.944275,460.999023 
	C849.944275,460.999054 850.004333,461.007721 849.730103,461.036957 
	C849.269104,461.363281 849.082458,461.660339 848.895752,461.957428 
	C848.895752,461.957428 848.962036,461.917877 848.597839,461.949341 
	C836.006226,471.509766 823.778870,481.038727 811.280457,490.778931 
	C808.282715,482.171356 805.504028,474.192780 802.785095,465.839111 
	C801.839661,462.529175 801.026062,459.506104 799.734741,456.703094 
	C799.220276,455.586365 797.681152,454.337524 796.550537,454.279602 
	C795.432800,454.222382 793.699707,455.329803 793.189026,456.386597 
	C791.864502,459.127686 791.063782,462.121887 789.804199,465.262604 
	C786.813477,472.007019 784.072571,478.503937 781.331726,485.000824 
z"/>
<path fill="#C13831" opacity="1.000000" stroke="none" 
	d="
M614.324463,554.917480 
	C615.061646,553.618469 616.102539,552.154724 617.502014,551.238586 
	C622.482849,547.977539 625.076538,543.512939 625.076050,537.542908 
	C625.071167,476.445923 625.071899,415.348938 625.068298,354.251953 
	C625.067810,346.179016 620.387085,341.542480 613.358887,338.051270 
	C613.222595,337.562592 613.096313,337.079071 613.096313,337.079071 
	C618.540222,337.715240 624.214417,337.595642 629.373413,339.167053 
	C636.862732,341.448242 639.936401,347.797760 639.948059,355.249298 
	C640.042603,415.704041 640.031860,476.159027 639.962463,536.613831 
	C639.953613,544.356628 636.976074,551.149963 629.478027,553.904602 
	C625.046448,555.532715 619.717834,554.719238 614.324463,554.917480 
M629.070557,422.500000 
	C629.070679,431.323639 629.068848,440.147278 629.073364,448.970917 
	C629.073914,450.135803 628.848755,451.387695 629.202942,452.439392 
	C629.513916,453.362610 630.491211,454.061401 631.174194,454.859314 
	C631.824341,454.094238 632.766846,453.422699 633.049194,452.539978 
	C633.389221,451.476929 633.187134,450.234436 633.187317,449.069641 
	C633.191223,422.432220 633.191528,395.794830 633.187988,369.157410 
	C633.187805,367.992950 633.342957,366.776245 633.055664,365.681000 
	C632.837769,364.850128 632.030457,364.173798 631.485474,363.428650 
	C630.706543,364.140625 629.537476,364.721527 629.243469,365.596405 
	C628.839050,366.800140 629.074280,368.226227 629.073853,369.557068 
	C629.068848,386.871368 629.070618,404.185699 629.070557,422.500000 
z"/>
<path fill="#462016" opacity="1.000000" stroke="none" 
	d="
M931.800171,278.548889 
	C931.557861,277.118469 931.136230,275.692474 931.100830,274.256958 
	C930.703491,258.151367 931.258484,241.963242 929.805176,225.956406 
	C927.538879,200.993805 919.963013,177.947174 898.440674,162.435074 
	C883.636597,151.765137 867.201538,143.873932 849.276245,140.235870 
	C836.027954,137.547043 822.424377,136.608429 808.438232,134.557892 
	C807.234863,133.200500 806.572449,132.175262 805.910095,131.150024 
	C826.671875,130.525787 847.413025,130.571838 867.827637,135.060806 
	C886.113892,139.081757 902.034058,147.285522 914.992004,161.274399 
	C926.540344,173.741547 933.977234,188.044556 938.437927,204.353058 
	C940.695435,212.606903 942.346863,220.738571 941.991455,229.258423 
	C941.404358,243.331955 943.602539,257.535187 940.011047,271.470795 
	C939.274902,274.327026 938.646667,277.211090 937.614502,280.365479 
	C935.440247,279.948761 933.620178,279.248840 931.800171,278.548889 
z"/>
<path fill="#0B0917" opacity="1.000000" stroke="none" 
	d="
M908.999512,662.520020 
	C904.699036,663.332458 900.404236,663.787231 896.097473,663.997559 
	C892.677063,664.164551 889.242065,664.032654 885.352661,663.549622 
	C884.977478,659.076965 884.927124,655.079651 885.170898,651.100464 
	C886.784912,624.755981 888.462097,598.415466 890.118713,572.073608 
	C890.118713,572.073608 890.566162,572.036804 890.989746,572.347534 
	C895.939758,574.067383 900.466187,575.476501 904.992676,576.885559 
	C907.801270,578.501465 910.609802,580.117371 913.711304,581.928345 
	C913.034424,593.934570 911.980591,605.739685 911.126221,617.559265 
	C910.603027,624.797363 910.375122,632.057190 910.033936,639.308105 
	C909.677246,646.890503 909.343628,654.473938 908.999512,662.520020 
z"/>
<path fill="#C1362F" opacity="1.000000" stroke="none" 
	d="
M667.042480,287.452942 
	C668.684143,288.358215 670.408508,289.478912 671.841553,290.894562 
	C674.966187,293.981232 677.942505,297.218048 680.955017,301.096069 
	C679.888428,307.140808 678.341125,312.440735 677.890503,317.832336 
	C675.841125,342.351959 680.471313,364.253296 703.591675,379.226990 
	C699.625244,378.876984 696.233704,378.368561 692.842285,378.369049 
	C691.212036,378.369324 689.581909,379.330383 687.951721,379.856354 
	C676.339539,376.540527 668.473511,368.466644 662.440552,358.665039 
	C656.254272,348.614166 653.590515,337.425079 654.007629,325.510071 
	C654.495361,311.579285 658.385254,298.898193 667.042480,287.452942 
z"/>
<path fill="#BD3932" opacity="1.000000" stroke="none" 
	d="
M486.044739,642.366638 
	C481.464142,643.250183 477.155060,643.929077 472.418518,644.487793 
	C481.174805,637.826599 484.109283,627.711426 485.758636,617.610535 
	C487.947357,604.206421 489.580017,590.574524 489.802185,577.013428 
	C490.358826,543.038086 489.954590,509.047455 490.010468,475.063080 
	C490.023773,466.962402 486.960571,460.912262 479.085114,457.317047 
	C489.421783,456.598358 496.027283,462.826294 496.061310,473.657532 
	C496.140320,498.796753 496.058838,523.936523 496.142700,549.075745 
	C496.148895,550.936096 496.956665,552.793823 497.750183,554.842163 
	C498.073303,568.961792 498.550934,582.917542 497.855591,596.814697 
	C497.188843,610.140320 495.769348,623.508606 490.023499,635.888489 
	C489.005920,638.080933 487.562897,640.075867 486.044739,642.366638 
z"/>
<path fill="#0D0A17" opacity="1.000000" stroke="none" 
	d="
M688.000610,380.215637 
	C689.581909,379.330383 691.212036,378.369324 692.842285,378.369049 
	C696.233704,378.368561 699.625244,378.876984 703.591675,379.226990 
	C680.471313,364.253296 675.841125,342.351959 677.890503,317.832336 
	C678.341125,312.440735 679.888428,307.140808 681.039795,301.430939 
	C682.345642,299.817322 683.957764,298.765594 684.650513,297.284027 
	C685.986023,294.427826 686.801880,291.328644 688.089539,288.273865 
	C690.459900,296.844421 692.599976,305.465118 694.659119,314.105072 
	C694.961060,315.372162 694.961243,316.730896 694.961426,318.047241 
	C694.964355,341.837006 699.204895,364.707764 709.654419,386.247955 
	C709.928833,386.813538 709.924561,387.514252 709.528259,388.546936 
	C705.676880,389.297119 702.347595,389.652313 699.018250,390.007507 
	C695.362000,386.863312 691.705750,383.719147 688.000610,380.215637 
z"/>
<path fill="#F48B52" opacity="1.000000" stroke="none" 
	d="
M843.834229,419.193237 
	C840.894653,420.194885 837.861755,420.985168 835.031860,422.235107 
	C823.271667,427.429657 811.572693,432.762817 798.739319,438.546234 
	C795.847778,435.231110 792.833496,431.775360 789.494507,428.310242 
	C788.782104,426.807190 788.394470,425.313507 787.964539,423.429474 
	C789.516907,421.545929 790.871826,419.574646 792.744385,418.634949 
	C807.818542,411.070404 822.975769,403.670441 838.153931,396.315704 
	C839.703125,395.565063 841.556641,395.442474 843.645996,395.520050 
	C843.960083,403.738861 843.897156,411.466034 843.834229,419.193237 
z"/>
<path fill="#F7C690" opacity="1.000000" stroke="none" 
	d="
M604.214844,631.761108 
	C606.737366,635.344299 609.070435,638.574402 611.855103,642.267334 
	C612.870361,644.541382 613.434021,646.352722 613.653931,648.384888 
	C601.710571,648.698730 590.111084,648.791687 578.492615,648.501404 
	C573.994995,640.666138 582.252136,642.212341 584.759949,639.336731 
	C572.068054,634.545898 559.764404,632.795532 547.983093,640.977295 
	C549.334595,636.433289 550.686890,632.299194 552.039124,628.165039 
	C559.741760,619.645447 569.411560,620.115356 579.569824,621.789612 
	C588.471191,623.256775 596.548096,626.486755 604.214844,631.761108 
z"/>
<path fill="#C1362F" opacity="1.000000" stroke="none" 
	d="
M698.993286,390.449463 
	C702.347595,389.652313 705.676880,389.297119 709.445557,388.919098 
	C710.601746,391.011230 711.318604,393.126190 712.089111,395.621460 
	C709.550110,405.968781 708.973389,415.819885 713.805054,425.996094 
	C712.220398,427.562531 710.662292,428.491150 709.104248,429.419739 
	C710.474609,431.057800 711.573975,433.112518 713.285645,434.225708 
	C715.303284,435.537933 717.987793,435.786743 720.125305,436.964630 
	C721.811523,437.893768 723.107239,439.531372 724.576416,440.854309 
	C719.101562,439.847351 713.626648,438.840393 707.866577,437.501282 
	C708.536255,431.524963 707.078918,429.941193 701.966492,431.067230 
	C696.273621,422.415619 696.615356,412.766968 697.439575,403.076843 
	C697.786316,399.001160 698.449158,394.952423 698.993286,390.449463 
z"/>
<path fill="#0B0A17" opacity="1.000000" stroke="none" 
	d="
M931.585632,278.951782 
	C933.620178,279.248840 935.440247,279.948761 937.589111,280.773682 
	C947.889404,293.118164 953.375854,307.058502 953.598572,323.366577 
	C952.734497,326.803497 952.288940,329.731659 951.843384,332.659851 
	C948.531250,324.093536 945.386841,315.457336 941.854004,306.983002 
	C939.034485,300.219666 937.220825,300.056641 931.946472,305.770081 
	C931.648010,297.192078 931.509521,288.273346 931.585632,278.951782 
z"/>
<path fill="#F48B52" opacity="1.000000" stroke="none" 
	d="
M951.892395,333.066650 
	C952.288940,329.731659 952.734497,326.803497 953.596558,323.797424 
	C965.649719,333.893372 968.081360,347.161835 966.386230,361.905701 
	C964.424744,360.924164 962.067688,360.047699 961.415771,358.467682 
	C958.018799,350.234802 955.055542,341.822968 951.892395,333.066650 
z"/>
<path fill="#0B0917" opacity="1.000000" stroke="none" 
	d="
M725.037109,440.891907 
	C723.107239,439.531372 721.811523,437.893768 720.125305,436.964630 
	C717.987793,435.786743 715.303284,435.537933 713.285645,434.225708 
	C711.573975,433.112518 710.474609,431.057800 709.104248,429.419739 
	C710.662292,428.491150 712.220398,427.562531 713.999756,426.322449 
	C719.442810,427.991211 724.797302,429.693024 729.821045,432.088348 
	C731.835815,433.049011 733.123535,435.534668 734.742188,437.326172 
	C732.484802,438.549438 730.265747,439.854340 727.945862,440.944611 
	C727.279358,441.257843 726.321899,440.951691 725.037109,440.891907 
z"/>
<path fill="#F48B52" opacity="1.000000" stroke="none" 
	d="
M551.676331,628.089966 
	C550.686890,632.299194 549.334595,636.433289 547.871216,641.233887 
	C547.087280,642.799805 546.414490,643.699280 545.741699,644.598755 
	C543.252686,644.278198 540.763550,643.957642 538.060486,643.325684 
	C539.505371,635.473572 544.250061,630.703308 551.676331,628.089966 
z"/>
<path fill="#761622" opacity="1.000000" stroke="none" 
	d="
M805.460449,131.109558 
	C806.572449,132.175262 807.234863,133.200500 807.975952,134.525848 
	C803.974426,134.867126 799.881714,135.106186 795.820129,134.850250 
	C794.234497,134.750320 792.719116,133.537201 791.063110,132.474274 
	C795.640015,131.767990 800.325439,131.418533 805.460449,131.109558 
z"/>
<path fill="#0F0B17" opacity="1.000000" stroke="none" 
	d="
M701.985229,431.426025 
	C707.078918,429.941193 708.536255,431.524963 707.483643,437.515778 
	C705.591858,435.836517 703.797913,433.810669 701.985229,431.426025 
z"/>
<path fill="#BD3932" opacity="1.000000" stroke="none" 
	d="
M402.544983,644.343628 
	C402.066925,644.280457 401.734070,644.016907 401.471130,643.559692 
	C401.541046,643.365967 401.637634,643.083313 401.756836,642.995056 
	C402.147430,643.318970 402.418823,643.731079 402.544983,644.343628 
z"/>
<path fill="#FFFFFF" opacity="1.000000" stroke="none" 
	d="
M612.825562,337.051514 
	C613.096313,337.079071 613.222595,337.562592 613.135071,337.796875 
	C612.750549,337.928131 612.491882,337.764465 612.148315,337.344879 
	C612.201660,337.107666 612.378235,337.065796 612.825562,337.051514 
z"/>
<path fill="#FFFFFF" opacity="1.000000" stroke="none" 
	d="
M308.744934,337.086700 
	C308.982147,337.149506 308.667480,337.504333 308.667480,337.504333 
	C308.667480,337.504333 308.232391,337.450073 308.138214,337.317322 
	C308.044037,337.184540 308.507751,337.023895 308.744934,337.086700 
z"/>
<path fill="#0D0A17" opacity="1.000000" stroke="none" 
	d="
M600.307983,531.531616 
	C600.304077,535.449463 600.551575,538.955017 600.153137,542.385559 
	C600.017212,543.555725 598.257996,544.537292 597.240601,545.605103 
	C596.373779,544.548523 594.854431,543.547180 594.759277,542.425232 
	C594.438721,538.644470 594.358337,534.793152 594.749573,531.027344 
	C594.903137,529.548523 596.545532,528.224365 597.509888,526.829712 
	C598.442017,528.249756 599.374146,529.669861 600.307983,531.531616 
z"/>
<path fill="#C13831" opacity="1.000000" stroke="none" 
	d="
M585.951782,544.493286 
	C585.507507,539.416321 585.133606,534.641663 585.276489,529.882629 
	C585.308167,528.826538 587.162964,527.825256 588.178406,526.798767 
	C589.069946,527.759338 590.658325,528.670288 590.730896,529.689209 
	C591.024902,533.816711 591.011780,537.985657 590.797607,542.123047 
	C590.650513,544.963989 589.277405,546.549561 585.951782,544.493286 
z"/>
<path fill="#0F0B17" opacity="1.000000" stroke="none" 
	d="
M606.965698,526.823608 
	C608.233887,527.713989 609.718567,528.563477 609.775574,529.499817 
	C610.038086,533.814575 610.084473,538.166077 609.784424,542.474976 
	C609.707703,543.577393 608.248474,545.034485 607.108276,545.440063 
	C606.441223,545.677307 604.297913,544.182312 604.275757,543.424011 
	C604.126160,538.301025 604.317139,533.164246 604.567139,528.040222 
	C604.588501,527.603577 605.842896,527.227173 606.965698,526.823608 
z"/>
<path fill="#0F0B17" opacity="1.000000" stroke="none" 
	d="
M916.928345,354.075378 
	C911.263123,349.221069 905.783813,344.122192 899.854675,339.615051 
	C896.862061,337.340088 893.022400,333.948822 889.150208,337.114532 
	C885.494690,340.103058 887.100403,344.718719 888.860901,348.184296 
	C894.171143,358.637512 899.932312,368.861664 904.998291,379.597656 
	C900.998230,377.008698 896.867004,374.489777 894.149109,370.900635 
	C882.352600,355.322906 879.517151,337.291748 881.569031,318.402588 
	C883.103088,304.279633 887.440063,291.038361 897.983887,280.792847 
	C900.401855,278.443298 901.562805,276.184845 901.013550,272.967285 
	C901.006714,262.141174 901.454529,251.291626 900.898499,240.493774 
	C899.735291,217.905792 893.023499,197.473175 876.028076,181.459473 
	C865.856140,171.875046 853.156982,167.053879 840.001282,164.237732 
	C825.809753,161.199844 811.249512,159.829819 796.818604,157.977417 
	C776.458557,155.363937 756.431580,157.710312 736.722534,162.927170 
	C721.022278,167.082962 705.976990,172.734497 693.967285,184.354965 
	C693.636353,184.675156 693.071167,184.753265 692.261108,184.955276 
	C694.693115,181.956421 697.103149,178.446243 700.328796,176.021133 
	C716.412781,163.929123 735.111023,158.121552 754.657104,155.241455 
	C786.088196,150.610062 817.307739,152.180908 848.049011,160.559341 
	C880.742126,169.469742 899.254944,191.326843 904.743713,224.257858 
	C906.646667,235.674728 907.422913,247.371231 907.631470,258.959473 
	C908.059998,282.769257 907.790894,306.592255 907.722412,330.409576 
	C907.711609,334.152740 908.121765,337.435059 912.569824,338.952728 
	C914.374817,343.619507 915.823059,348.228394 917.216064,353.334534 
	C917.160889,353.831757 916.928345,354.075378 916.928345,354.075378 
z"/>
<path fill="#C2372F" opacity="1.000000" stroke="none" 
	d="
M900.585449,272.934540 
	C901.562805,276.184845 900.401855,278.443298 897.983887,280.792847 
	C887.440063,291.038361 883.103088,304.279633 881.569031,318.402588 
	C879.517151,337.291748 882.352600,355.322906 894.149109,370.900635 
	C896.867004,374.489777 900.998230,377.008698 904.837524,379.943604 
	C905.195984,379.867065 905.127258,379.940765 905.106018,380.155945 
	C905.490234,380.315002 905.895630,380.258911 906.301086,380.202789 
	C906.786072,381.564636 907.271057,382.926483 907.287354,384.648102 
	C894.219727,386.044250 883.638489,381.848358 874.958557,372.721985 
	C870.579712,365.155426 864.954895,358.034729 862.057678,349.937988 
	C853.670898,326.499878 857.807007,304.812012 874.028625,285.279633 
	C881.828857,278.795502 889.740784,273.147827 900.585449,272.934540 
z"/>
<path fill="#0F0B17" opacity="1.000000" stroke="none" 
	d="
M690.805664,186.859589 
	C690.787842,186.410370 691.097412,185.830536 691.689514,185.084564 
	C691.692383,185.521927 691.412720,186.125443 690.805664,186.859589 
z"/>
<path fill="#030201" opacity="1.000000" stroke="none" 
	d="
M790.054016,465.015076 
	C791.063782,462.121887 791.864502,459.127686 793.189026,456.386597 
	C793.699707,455.329803 795.432800,454.222382 796.550537,454.279602 
	C797.681152,454.337524 799.220276,455.586365 799.734741,456.703094 
	C801.026062,459.506104 801.839661,462.529175 802.491333,466.011169 
	C798.452209,468.907349 799.558899,472.659210 799.364868,476.030334 
	C798.841064,498.970123 798.369995,521.911255 797.781067,544.849365 
	C796.906128,578.924805 795.947815,612.998169 794.616089,647.708252 
	C786.138855,648.560791 778.071167,648.836060 770.001282,648.937256 
	C768.640808,648.954407 767.270935,648.220764 765.905396,647.834045 
	C767.658142,634.523315 769.320618,621.199829 771.184875,607.904724 
	C773.992676,587.880249 776.975952,567.880432 779.820862,547.861084 
	C782.759338,527.183167 785.621582,506.494415 788.697876,485.022522 
	C789.136963,482.276642 789.529602,480.325287 789.626831,478.359344 
	C789.846741,473.915070 789.920715,469.463623 790.054016,465.015076 
z"/>
<path fill="#000000" opacity="1.000000" stroke="none" 
	d="
M874.583740,372.777222 
	C883.638489,381.848358 894.219727,386.044250 907.253296,384.981445 
	C906.888367,386.425385 906.092712,387.897919 905.288696,389.365814 
	C899.551453,399.840179 895.775146,410.803406 897.029785,422.985046 
	C897.142151,424.076141 897.663696,425.125122 897.903503,426.946594 
	C893.846558,429.268890 893.547791,432.436310 894.188416,436.013123 
	C894.449341,439.742462 894.710205,443.471832 894.615723,447.496826 
	C892.236633,446.844482 890.278259,445.278442 888.177856,445.056610 
	C879.573425,444.147736 870.922974,443.683075 862.296082,442.973846 
	C860.219421,442.803070 858.168396,442.321167 856.105591,441.982300 
	C852.145264,434.587952 848.184875,427.193634 844.029358,419.496277 
	C843.897156,411.466034 843.960083,403.738861 844.051514,395.564453 
	C851.065552,389.995270 858.060242,384.885681 865.032410,379.745544 
	C868.114746,377.473083 871.151550,375.138763 874.583740,372.777222 
z"/>
<path fill="#C2372F" opacity="1.000000" stroke="none" 
	d="
M889.831909,571.872681 
	C888.462097,598.415466 886.784912,624.755981 885.170898,651.100464 
	C884.927124,655.079651 884.977478,659.076965 884.875427,663.532349 
	C878.868958,663.994385 872.878845,663.989929 866.418823,663.953003 
	C867.285706,653.227051 868.720520,642.544739 869.935608,631.837524 
	C871.619263,617.000916 873.164307,602.148315 874.712280,587.296692 
	C875.245422,582.181763 875.609375,577.049194 876.330261,571.180054 
	C876.736572,568.251831 876.863281,566.068176 876.989990,563.884583 
	C881.174988,566.480286 885.360046,569.075989 889.831909,571.872681 
z"/>
<path fill="#0B0A17" opacity="1.000000" stroke="none" 
	d="
M765.523010,648.002686 
	C767.270935,648.220764 768.640808,648.954407 770.001282,648.937256 
	C778.071167,648.836060 786.138855,648.560791 794.587891,648.176636 
	C797.926880,648.161072 800.885254,648.442627 803.843567,648.441833 
	C814.836243,648.438965 812.988159,648.463562 813.046875,657.962158 
	C813.057617,659.701782 812.566956,661.444397 812.148865,663.575806 
	C787.881592,663.973694 763.773193,663.981384 739.183105,663.485107 
	C738.700134,658.272278 738.698914,653.563477 738.697693,648.854675 
	C747.512024,648.626892 756.326294,648.399109 765.523010,648.002686 
z"/>
<path fill="#C2372F" opacity="1.000000" stroke="none" 
	d="
M855.873535,442.247009 
	C858.168396,442.321167 860.219421,442.803070 862.296082,442.973846 
	C870.922974,443.683075 879.573425,444.147736 888.177856,445.056610 
	C890.278259,445.278442 892.236633,446.844482 894.596436,447.921753 
	C897.695801,460.466858 894.284668,472.543274 893.657593,483.959198 
	C882.387085,473.712982 871.147461,463.494812 859.627075,453.123169 
	C858.111389,449.483673 856.876465,445.997681 855.873535,442.247009 
z"/>
<path fill="#D98E1B" opacity="1.000000" stroke="none" 
	d="
M904.778076,576.640991 
	C900.466187,575.476501 895.939758,574.067383 891.212891,572.371338 
	C890.830017,571.120483 890.943848,569.939941 890.420898,569.225098 
	C880.997864,556.344482 880.944702,542.057434 884.155273,527.341309 
	C886.226746,517.846069 888.595032,508.415497 890.729553,499.382355 
	C890.161438,513.791992 888.951965,528.532471 889.188721,543.249634 
	C889.397400,556.226746 893.674622,568.025574 904.778076,576.640991 
z"/>
<path fill="#D98E1B" opacity="1.000000" stroke="none" 
	d="
M799.681580,476.145874 
	C799.558899,472.659210 798.452209,468.907349 802.431519,466.386292 
	C805.504028,474.192780 808.282715,482.171356 811.280457,490.778931 
	C823.778870,481.038727 836.006226,471.509766 848.572266,461.920410 
	C846.571472,464.752289 844.476196,467.891083 841.848633,470.492340 
	C832.412292,479.834351 822.800110,488.998840 813.241394,498.217010 
	C812.305908,499.119202 811.281128,499.928833 809.757080,501.250275 
	C806.395508,492.642487 803.196899,484.451965 799.681580,476.145874 
z"/>
<path fill="#D98E1B" opacity="1.000000" stroke="none" 
	d="
M876.848694,563.589600 
	C876.863281,566.068176 876.736572,568.251831 876.359985,570.739990 
	C869.941650,564.409912 863.719604,557.823669 857.638611,551.109802 
	C855.891541,549.180908 854.551453,546.883423 853.020264,544.368713 
	C853.015808,543.982483 853.109375,543.896790 853.109375,543.896790 
	C858.141541,547.838562 863.226196,551.715820 868.186035,555.746582 
	C871.128113,558.137573 873.873535,560.770508 876.848694,563.589600 
z"/>
<path fill="#F48B52" opacity="1.000000" stroke="none" 
	d="
M894.572144,435.994904 
	C893.547791,432.436310 893.846558,429.268890 897.979492,427.372314 
	C903.625305,428.194427 904.513123,432.875305 905.978638,437.508606 
	C902.340637,437.234619 898.648254,436.605652 894.572144,435.994904 
z"/>
<path fill="#D98E1B" opacity="1.000000" stroke="none" 
	d="
M852.967590,544.023621 
	C852.062378,543.674866 851.205383,543.285034 850.348328,542.895142 
	C850.778015,542.470703 851.207703,542.046326 851.637390,541.621887 
	C852.101929,542.186951 852.566467,542.752014 853.070190,543.606934 
	C853.109375,543.896790 853.015808,543.982483 852.967590,544.023621 
z"/>
<path fill="#D98E1B" opacity="1.000000" stroke="none" 
	d="
M851.357666,460.004425 
	C851.476379,459.625763 851.931152,459.206360 852.682129,458.657043 
	C852.550110,459.006012 852.121948,459.484833 851.357666,460.004425 
z"/>
<path fill="#D98E1B" opacity="1.000000" stroke="none" 
	d="
M849.151611,461.880005 
	C849.082458,461.660339 849.269104,461.363281 849.729858,461.006592 
	C849.805054,461.232208 849.606262,461.517395 849.151611,461.880005 
z"/>
<path fill="#D98E1B" opacity="1.000000" stroke="none" 
	d="
M850.191528,460.922241 
	C850.136780,460.715424 850.329285,460.431824 850.780823,460.089752 
	C850.839539,460.302704 850.639221,460.574097 850.191528,460.922241 
z"/>
<path fill="#F2F2F2" opacity="1.000000" stroke="none" 
	d="
M738.332336,648.767700 
	C738.698914,653.563477 738.700134,658.272278 738.696899,663.440735 
	C728.097168,663.962158 717.501892,664.023926 706.439697,664.163269 
	C679.543884,664.181030 653.115051,664.112549 626.686218,664.064636 
	C610.726501,664.035706 594.766785,664.038757 578.140015,663.612183 
	C577.819214,658.426147 578.165405,653.655457 578.511597,648.884644 
	C590.111084,648.791687 601.710571,648.698730 614.115234,648.478821 
	C639.831177,648.369995 664.742004,648.417908 689.652771,648.394226 
	C703.098328,648.381470 716.543823,648.246338 729.989319,648.166382 
	C732.648560,648.337830 735.307739,648.509277 738.332336,648.767700 
z"/>
<path fill="#141328" opacity="1.000000" stroke="none" 
	d="
M578.492615,648.501465 
	C578.165405,653.655457 577.819214,658.426147 577.665100,663.557739 
	C572.886658,663.951538 567.916138,663.984558 562.631958,663.648560 
	C562.875183,659.125183 563.550293,654.982300 563.957092,650.813293 
	C564.399963,646.275452 562.183716,644.323059 557.672791,644.983765 
	C554.021362,644.877014 550.369934,644.770325 546.230103,644.631165 
	C546.414490,643.699280 547.087280,642.799805 547.871948,641.643738 
	C559.764404,632.795532 572.068054,634.545898 584.759949,639.336731 
	C582.252136,642.212341 573.994995,640.666138 578.492615,648.501465 
z"/>
<path fill="#C2372F" opacity="1.000000" stroke="none" 
	d="
M557.863403,645.335754 
	C562.183716,644.323059 564.399963,646.275452 563.957092,650.813293 
	C563.550293,654.982300 562.875183,659.125183 562.166382,663.634827 
	C560.626221,664.003418 559.237854,664.016785 557.434082,664.012939 
	C560.458069,659.928467 560.957642,651.094971 557.863403,645.335754 
z"/>
<path fill="#F6B47D" opacity="1.000000" stroke="none" 
	d="
M814.926392,324.992798 
	C822.473206,326.108612 826.616821,331.349274 828.643372,337.867798 
	C832.291748,349.602753 825.680359,361.126862 814.139282,364.428314 
	C802.345886,367.801880 790.393372,361.488861 786.833740,349.806793 
	C783.802368,339.858398 787.791138,332.336395 796.061401,326.352356 
	C797.356323,328.104004 797.725281,330.108459 798.902710,331.339752 
	C800.725952,333.246307 803.172791,335.980408 805.223022,335.871643 
	C807.584045,335.746429 810.127563,333.206116 811.977173,331.159210 
	C813.441528,329.538696 813.977905,327.079559 814.926392,324.992798 
z"/>
<path fill="#F6B47D" opacity="1.000000" stroke="none" 
	d="
M738.226624,324.980408 
	C740.470581,328.238800 742.972778,331.356323 744.857300,334.810822 
	C745.912170,336.744385 745.943054,339.236511 746.571655,342.040009 
	C742.461548,346.814636 738.770691,351.264679 740.147217,357.889648 
	C735.646179,359.260010 731.203979,361.506378 726.631531,361.813507 
	C717.844421,362.403748 710.430847,355.012177 708.896118,346.355225 
	C707.599060,339.039154 708.905945,332.583893 713.226257,326.758484 
	C714.406128,325.167664 716.473694,324.235260 718.616211,323.343384 
	C720.313599,326.553162 721.184082,329.635803 722.814697,332.242950 
	C726.314819,337.838837 731.411987,337.746948 734.939148,332.121613 
	C736.319702,329.919739 737.147217,327.371094 738.226624,324.980408 
z"/>
<path fill="#F48B52" opacity="1.000000" stroke="none" 
	d="
M772.091309,399.256958 
	C761.092102,403.661621 761.088379,403.664093 754.725769,394.112518 
	C751.335999,389.023804 747.961609,383.924835 744.043884,378.022491 
	C762.595276,378.563599 779.690674,375.998260 794.954163,363.832275 
	C792.757751,379.865143 785.364807,391.242523 772.091309,399.256958 
z"/>
<path fill="#0D0A17" opacity="1.000000" stroke="none" 
	d="
M738.209229,324.565613 
	C737.147217,327.371094 736.319702,329.919739 734.939148,332.121613 
	C731.411987,337.746948 726.314819,337.838837 722.814697,332.242950 
	C721.184082,329.635803 720.313599,326.553162 718.974915,323.330811 
	C717.594910,315.348724 717.667969,307.767120 720.268311,300.423676 
	C721.765442,296.195679 723.466919,291.184998 728.837402,291.307068 
	C734.030457,291.425171 735.787170,296.170197 737.271912,300.531891 
	C739.924683,308.324829 739.716675,316.206818 738.209229,324.565613 
z"/>
<path fill="#0D0A17" opacity="1.000000" stroke="none" 
	d="
M814.918213,324.566681 
	C813.977905,327.079559 813.441528,329.538696 811.977173,331.159210 
	C810.127563,333.206116 807.584045,335.746429 805.223022,335.871643 
	C803.172791,335.980408 800.725952,333.246307 798.902710,331.339752 
	C797.725281,330.108459 797.356323,328.104004 796.370483,326.209045 
	C796.114746,318.240356 795.872681,310.496796 796.251343,302.783722 
	C796.373413,300.295959 797.826599,297.702393 799.195312,295.480316 
	C802.788696,289.646637 808.239990,289.651825 811.686157,295.579926 
	C816.225769,303.388916 816.606445,311.970978 815.518127,320.706451 
	C815.374573,321.858490 815.115540,322.996185 814.918213,324.566681 
z"/>
<path fill="#F48B52" opacity="1.000000" stroke="none" 
	d="
M740.441040,358.088684 
	C738.770691,351.264679 742.461548,346.814636 746.842957,342.295441 
	C752.068176,332.192169 757.158569,322.396484 762.144165,312.802368 
	C764.571594,325.089966 768.735535,338.016083 763.045044,351.381256 
	C759.335999,360.092834 748.142944,363.569824 740.441040,358.088684 
z"/>
<path fill="#4C261A" opacity="1.000000" stroke="none" 
	d="
M800.865112,269.945801 
	C802.926453,270.773560 804.581421,271.583252 806.387451,272.466827 
	C802.359741,277.359894 790.486389,278.508392 787.052002,274.653503 
	C786.590210,274.135132 787.694946,271.004272 788.356506,270.901642 
	C792.344910,270.282867 796.415649,270.193970 800.865112,269.945801 
z"/>
<path fill="#4C261A" opacity="1.000000" stroke="none" 
	d="
M739.547119,276.817261 
	C735.732910,276.365601 732.268494,276.136902 728.975830,275.261993 
	C726.996582,274.736023 725.947327,273.113403 728.210571,271.263489 
	C732.258484,267.954895 742.976135,268.935059 747.705383,273.864685 
	C744.843933,274.938568 742.406555,275.853302 739.547119,276.817261 
z"/>
<path fill="#D98E1B" opacity="1.000000" stroke="none" 
	d="
M729.993591,647.714294 
	C716.543823,648.246338 703.098328,648.381470 689.652771,648.394226 
	C664.742004,648.417908 639.831177,648.369995 614.459106,648.257935 
	C613.434021,646.352722 612.870361,644.541382 612.163696,642.412354 
	C630.326721,634.232971 648.632019,626.369629 666.940308,618.513062 
	C668.312683,617.924133 669.832275,617.580505 671.068604,616.787781 
	C677.912415,612.399963 683.503967,614.221130 689.177979,619.995239 
	C688.834351,617.339722 689.224731,614.260376 687.988831,612.120117 
	C685.675842,608.114563 686.471436,604.736267 688.114990,600.951172 
	C698.962036,575.969788 709.730286,550.954163 720.501282,525.939880 
	C724.693420,516.203979 728.826233,506.442505 733.217346,496.150482 
	C738.044067,503.508698 739.626953,510.886139 738.942322,518.895935 
	C738.209106,527.474060 737.631775,536.065796 737.025940,544.654419 
	C735.697693,563.486206 734.343933,582.316406 733.098999,601.153809 
	C732.301270,613.224792 731.707458,625.309143 730.959595,637.383606 
	C730.755249,640.683655 730.324646,643.969727 729.993591,647.714294 
z"/>
<path fill="#D98E1B" opacity="1.000000" stroke="none" 
	d="
M789.804199,465.262604 
	C789.920715,469.463623 789.846741,473.915070 789.626831,478.359344 
	C789.529602,480.325287 789.136963,482.276642 788.731384,484.574219 
	C787.556702,486.513977 786.529114,488.114166 785.234924,490.129639 
	C784.139893,488.672607 782.940552,487.076782 781.536499,485.240906 
	C784.072571,478.503937 786.813477,472.007019 789.804199,465.262604 
z"/>
<path fill="#0F0B17" opacity="1.000000" stroke="none" 
	d="
M926.660767,314.981140 
	C925.279541,312.612305 924.255737,310.019623 923.161011,307.457214 
	C921.567993,303.728455 919.149597,302.868164 915.515625,305.598602 
	C916.147827,299.888947 916.863647,293.986176 918.148560,288.210022 
	C918.496338,286.646576 920.565674,285.466064 921.844727,284.109802 
	C922.997803,285.402344 924.664612,286.506531 925.219177,288.018616 
	C928.413208,296.728088 928.962769,305.683655 926.660767,314.981140 
z"/>
<path fill="#0F0B17" opacity="1.000000" stroke="none" 
	d="
M906.046021,379.895844 
	C905.895630,380.258911 905.490234,380.315002 905.066162,380.125183 
	C905.295349,379.782471 905.543152,379.685669 906.046021,379.895844 
z"/>
<path fill="#0F0B17" opacity="1.000000" stroke="none" 
	d="
M917.277832,353.710571 
	C917.516174,353.971710 917.637573,354.354004 917.758972,354.736267 
	C917.519104,354.707703 917.279175,354.679138 916.983826,354.362976 
	C916.928345,354.075378 917.160889,353.831757 917.277832,353.710571 
z"/>
<path fill="#0F0B17" opacity="1.000000" stroke="none" 
	d="
M629.070557,422.000000 
	C629.070618,404.185699 629.068848,386.871368 629.073853,369.557068 
	C629.074280,368.226227 628.839050,366.800140 629.243469,365.596405 
	C629.537476,364.721527 630.706543,364.140625 631.485474,363.428650 
	C632.030457,364.173798 632.837769,364.850128 633.055664,365.681000 
	C633.342957,366.776245 633.187805,367.992950 633.187988,369.157410 
	C633.191528,395.794830 633.191223,422.432220 633.187317,449.069641 
	C633.187134,450.234436 633.389221,451.476929 633.049194,452.539978 
	C632.766846,453.422699 631.824341,454.094238 631.174194,454.859314 
	C630.491211,454.061401 629.513916,453.362610 629.202942,452.439392 
	C628.848755,451.387695 629.073914,450.135803 629.073364,448.970917 
	C629.068848,440.147278 629.070679,431.323639 629.070557,422.000000 
z"/>
</svg>